<?xml version="1.0" encoding="UTF-8"?>
<svg id="Camada_1" data-name="Camada 1" xmlns="http://www.w3.org/2000/svg" viewBox="0 0 220.54 68.91">
  <defs>
    <style>
      .cls-1, .cls-2 {
        fill: #292c6a;
        stroke-width: 0px;
      }

      .cls-2 {
        fill-rule: evenodd;
      }
    </style>
  </defs>
  <path class="cls-2" d="M26.84,46c-.14-.11-.28-.21-.41-.37l-1.06-1.87c-.15-.45-.35-.99-.46-1.57-1.31-4.96-2.29-6.88,1.24-11.47,1.56-2.15,3.25-3.79,4.6-4.95l-.68,2.29-.06,2.54v15.03l-3.16.36ZM10.46,22.03l2.54.06h13.15c-1.01.24-2.53.5-6.18,1.17l-.08.05c-4.24.69-11.4,4.75-14.25,8.09-1.31,1.49-2.2,2.51-2.87,3.26v-4.04l-.06-2.54L0,18.93l10.46,3.1ZM2.77,48.74v-6.97c1.66-.52,3.81-1.06,6.28-1.34,5.67-.64,6.89,1.14,10.48,4.81.44.4.8.84,1.11,1.2.05.08.09.16.14.25l-18.02,2.05Z"/>
  <g>
    <path class="cls-1" d="M49.25,15.96h9.55l-.89,5.74c2.31-3.73,7.46-6.49,13.12-6.49,7.31,0,14.09,4.62,14.09,15.73,0,12.9-8.35,24.53-20.73,24.53-5.67,0-9.62-2.76-10.89-6.56l-3.06,19.99h-9.55l8.35-52.95ZM75.95,32.74c0-6.64-3.88-9.55-8.5-9.55-7.68,0-12.38,7.09-12.38,14.77,0,6.64,3.88,9.55,8.43,9.55,7.61,0,12.45-7.09,12.45-14.77Z"/>
    <path class="cls-1" d="M91.98,15.96h9.55l-6.12,38.78h-9.55l6.12-38.78ZM93.03,5.3c0-2.98,2.46-5.3,5.37-5.3s5.37,2.31,5.37,5.3-2.54,5.22-5.37,5.22-5.37-2.31-5.37-5.22Z"/>
    <path class="cls-1" d="M109.58,2.54h9.55l-8.28,52.2h-9.55L109.58,2.54Z"/>
    <path class="cls-1" d="M117.93,35.35c0-14.02,9.47-20.13,19.24-20.13s19.24,6.11,19.24,20.13-9.55,20.14-19.24,20.14-19.24-6.11-19.24-20.14ZM147.39,35.35c0-8.43-4.62-12.16-10.22-12.16s-10.29,3.73-10.29,12.16,4.62,12.16,10.29,12.16,10.22-3.73,10.22-12.16Z"/>
    <path class="cls-1" d="M163.05,43.85v-20.43h-6.49v-7.46h6.49V6.04h9.55v9.92h7.61v7.46h-7.61v18.94c0,3.36,1.04,5.22,5.07,5.22.9,0,1.57,0,2.98-.15v7.16c-1.64.45-3.5.67-5.52.67-7.31,0-12.08-3.21-12.08-11.41Z"/>
    <path class="cls-1" d="M182.06,35.35c0-14.02,9.47-20.13,19.24-20.13s19.24,6.11,19.24,20.13-9.55,20.14-19.24,20.14-19.24-6.11-19.24-20.14ZM211.52,35.35c0-8.43-4.62-12.16-10.22-12.16s-10.29,3.73-10.29,12.16,4.62,12.16,10.29,12.16,10.22-3.73,10.22-12.16Z"/>
  </g>
</svg>